<svg xmlns="http://www.w3.org/2000/svg" viewBox="0 0 32 32">
  <defs>
    <linearGradient id="grad1" x1="0%" y1="0%" x2="100%" y2="100%">
      <stop offset="0%" style="stop-color:#8b5cf6;stop-opacity:1" />
      <stop offset="100%" style="stop-color:#3b82f6;stop-opacity:1" />
    </linearGradient>
  </defs>
  <path d="M19.16 2.37A1.5 1.5 0 0 0 17.5 2h-6a1.5 1.5 0 0 0-1.46 1.83l1.83 8.17H6.5A1.5 1.5 0 0 0 5.16 14.1l8 15a1.5 1.5 0 0 0 2.82-.9l-2-9.2h5.52a1.5 1.5 0 0 0 1.25-2.33l-8-12.5a1.5 1.5 0 0 0-2.34 1.66l6.37 9.95-4.43.95 1.4-6.3-4.52.97L13.1 8h-4.6l5.05-5H17.5l-4.13 8.27 1.34 3.12 4.45-8.9z" fill="url(#grad1)"/>
  <path d="M18 12.5h-5.2l2.3-10.5h6l-2.6 12 7.7-1.1-10 17 2-9h-5.1l4.9-8.4z" fill="url(#grad1)"/>
</svg>
